<svg width="24" height="24" viewBox="0 0 24 24" fill="none" xmlns="http://www.w3.org/2000/svg">
<path d="M12 24C5.39738 24 0 18.6026 0 12C0 5.39738 5.39738 0 12 0C18.6026 0 24 5.39738 24 12C24.0524 18.6026 18.655 24 12 24ZM12 1.25764C6.0786 1.25764 1.31004 6.0786 1.31004 11.9476C1.31004 17.8166 6.131 22.6376 12 22.6376C17.869 22.6376 22.69 17.8166 22.69 11.9476C22.69 6.0786 17.9214 1.25764 12 1.25764Z" fill="#1A4553"/>
<path d="M15.7729 18.131L11.3188 13.6769V5.5546H12.7336V13.1004L16.7686 17.1354L15.7729 18.131Z" fill="#1A4553"/>
</svg>
