<svg width="18" height="23" viewBox="0 0 18 23" fill="none" xmlns="http://www.w3.org/2000/svg">
<path fill-rule="evenodd" clip-rule="evenodd" d="M9 23C9 23 0 18.2915 0 9C0 4.0295 4.0295 0 9 0C13.9705 0 18 4.0295 18 9C18 18.2915 9 23 9 23ZM9 1C4.589 1 1 4.589 1 9C1 16.379 7.231 20.7505 9.0015 21.8435C10.7735 20.755 17 16.4025 17 9C17 4.589 13.411 1 9 1ZM9 13.5C6.5145 13.5 4.5 11.4855 4.5 9C4.5 6.5145 6.5145 4.5 9 4.5C11.4855 4.5 13.5 6.5145 13.5 9C13.5 11.4855 11.4855 13.5 9 13.5ZM9 5.5C7.067 5.5 5.5 7.067 5.5 9C5.5 10.933 7.067 12.5 9 12.5C10.933 12.5 12.5 10.933 12.5 9C12.5 7.067 10.933 5.5 9 5.5Z" fill="#1A4553"/>
</svg>
