<svg width="48" height="48" viewBox="0 0 48 48" fill="none" xmlns="http://www.w3.org/2000/svg">
<path d="M24 48C37.2548 48 48 37.2548 48 24C48 10.7452 37.2548 0 24 0C10.7452 0 0 10.7452 0 24C0 37.2548 10.7452 48 24 48Z" fill="#306577"/>
<g opacity="0.2">
<path d="M21.7215 19.0072C21.4087 15.4117 17.658 13.6477 17.499 13.5757C17.3497 13.5052 17.1832 13.4842 17.0227 13.512C12.6922 14.2305 12.0412 16.7505 12.015 16.8555C11.979 17.0025 11.9857 17.1547 12.0315 17.2972C17.196 33.3217 27.93 36.2925 31.4587 37.2697C31.7302 37.3447 31.9545 37.4055 32.1247 37.461C32.2072 37.4887 32.292 37.5 32.3767 37.5C32.493 37.5 32.6092 37.4752 32.7157 37.4265C32.8237 37.3777 35.3737 36.1762 35.997 32.2582C36.0247 32.088 35.997 31.911 35.9182 31.7572C35.8627 31.6492 34.5285 29.1112 30.8302 28.2142C30.5715 28.1475 30.3067 28.2157 30.1072 28.386C28.9402 29.3827 27.3285 30.4447 26.6332 30.5542C21.9705 28.2742 19.3672 23.9002 19.269 23.0707C19.212 22.6042 20.28 20.9662 21.5092 19.6342C21.6645 19.4655 21.7432 19.2367 21.7215 19.0072Z" fill="#231F20"/>
</g>
<path d="M21.7215 17.5072C21.4087 13.9117 17.658 12.1477 17.499 12.0757C17.3497 12.0052 17.1832 11.9842 17.0227 12.012C12.6922 12.7305 12.0412 15.2505 12.015 15.3555C11.979 15.5025 11.9857 15.6547 12.0315 15.7972C17.196 31.8217 27.93 34.7925 31.4587 35.7697C31.7302 35.8447 31.9545 35.9055 32.1247 35.961C32.2072 35.9887 32.292 36 32.3767 36C32.493 36 32.6092 35.9752 32.7157 35.9265C32.8237 35.8777 35.3737 34.6762 35.997 30.7582C36.0247 30.588 35.997 30.411 35.9182 30.2572C35.8627 30.1492 34.5285 27.6112 30.8302 26.7142C30.5715 26.6475 30.3067 26.7157 30.1072 26.886C28.9402 27.8827 27.3285 28.9447 26.6332 29.0542C21.9705 26.7742 19.3672 22.4002 19.269 21.5707C19.212 21.1042 20.28 19.4662 21.5092 18.1342C21.6645 17.9655 21.7432 17.7367 21.7215 17.5072Z" fill="white"/>
</svg>
