<svg width="23" height="23" viewBox="0 0 23 23" fill="none" xmlns="http://www.w3.org/2000/svg">
<path d="M9.40252 18.805C4.24319 18.805 0 14.6101 0 9.40252C0 4.24319 4.19497 0 9.40252 0C14.6101 0 18.805 4.19497 18.805 9.40252C18.7568 14.6101 14.5618 18.805 9.40252 18.805ZM9.40252 1.39832C4.96646 1.39832 1.3501 5.01467 1.3501 9.45073C1.3501 13.8868 4.96646 17.5031 9.40252 17.5031C13.8386 17.5031 17.4549 13.8868 17.4549 9.45073C17.4067 5.01467 13.7904 1.39832 9.40252 1.39832Z" fill="#DDDDDD"/>
<path d="M21.9392 23L15.3815 16.4906L16.4423 15.4298L22.9518 21.9874L21.9392 23Z" fill="#DDDDDD"/>
</svg>
