<svg width="47" height="53" viewBox="0 0 47 53" fill="none" xmlns="http://www.w3.org/2000/svg">
<path fill-rule="evenodd" clip-rule="evenodd" d="M37.7957 19.2727C37.7957 26.0061 33.163 31.6458 26.901 33.2527V45.7727H34.1641C34.8336 45.7727 35.3747 46.3124 35.3747 46.9773C35.3747 47.6434 34.8336 48.1818 34.1641 48.1818H12.3747C11.7053 48.1818 11.1641 47.6434 11.1641 46.9773C11.1641 46.3124 11.7053 45.7727 12.3747 45.7727H19.6378V33.2527C13.3758 31.6458 8.74309 26.0061 8.74309 19.2727C4.0632 19.2727 0.269409 15.4977 0.269409 10.8409V8.43182C0.269409 7.76691 0.810515 7.22727 1.47994 7.22727H8.74309V6.02273C8.74309 4.0268 7.11736 2.40909 5.11151 2.40909C4.44209 2.40909 3.90099 1.86945 3.90099 1.20455C3.90099 0.539636 4.44209 0 5.11151 0H41.4273C42.0967 0 42.6378 0.539636 42.6378 1.20455C42.6378 1.86945 42.0967 2.40909 41.4273 2.40909C39.4215 2.40909 37.7957 4.0268 37.7957 6.02273V7.22727H45.0589C45.7283 7.22727 46.2694 7.76691 46.2694 8.43182V10.8409C46.2694 15.4977 42.4756 19.2727 37.7957 19.2727ZM22.0589 45.7727H24.4799V33.6658C24.0805 33.6996 23.6786 33.7273 23.2694 33.7273C22.8603 33.7273 22.4584 33.6996 22.0589 33.6658V45.7727ZM2.69046 9.63636V10.8409C2.69046 14.1679 5.39962 16.8636 8.74309 16.8636V9.63636H2.69046ZM9.92699 2.40909C10.692 3.4185 11.1641 4.66039 11.1641 6.02273V19.2727C11.1641 25.9254 16.5837 31.3182 23.2694 31.3182C29.9539 31.3182 35.3747 25.9254 35.3747 19.2727V6.02273C35.3747 4.66039 35.8468 3.4185 36.6118 2.40909H9.92699ZM43.8484 9.63636H37.7957V16.8636C41.1392 16.8636 43.8484 14.1679 43.8484 10.8409V9.63636ZM8.74309 50.5909H37.7957C38.4651 50.5909 39.0063 51.1305 39.0063 51.7955C39.0063 52.4616 38.4651 53 37.7957 53H8.74309C8.07367 53 7.53257 52.4616 7.53257 51.7955C7.53257 51.1305 8.07367 50.5909 8.74309 50.5909Z" fill="white"/>
</svg>
