<svg width="63" height="60" viewBox="0 0 63 60" fill="none" xmlns="http://www.w3.org/2000/svg">
<path fill-rule="evenodd" clip-rule="evenodd" d="M59.6236 35.2374C60.4215 36.1667 60.9216 37.3559 60.9216 38.6704C60.9216 40.6182 59.8541 42.306 58.2758 43.2352C59.0737 44.1658 59.5738 45.355 59.5738 46.6695C59.5738 48.6186 58.5049 50.3037 56.928 51.2343C57.7259 52.1635 58.2259 53.3527 58.2259 54.6673C58.2259 57.6123 55.812 60 52.8346 60L21.2901 59.9973V59.9653C19.1309 59.8733 17.2224 58.8668 15.9325 57.331H7.00854C3.28584 57.331 0.269409 50.1678 0.269409 41.3327C0.269409 32.4977 3.28584 25.3345 7.00854 25.3345H18.3128L28.5738 10.6722V4.00625C29.3029 -0.342603 32.6172 0.00669103 32.6172 0.00669103C35.5986 0.00669103 36.6607 1.33988 36.6607 1.33988C40.7042 5.33943 40.7042 12.0054 40.7042 12.0054C40.7042 20.815 36.6607 25.3372 36.6607 25.3372H56.8781C59.8554 25.3372 62.2694 27.7249 62.2694 30.6699C62.2694 32.619 61.2006 34.3069 59.6236 35.2374ZM7.00854 28.0009C5.96937 28.0009 2.96506 32.5844 2.96506 41.3327C2.96506 50.0811 5.96937 54.6646 7.00854 54.6646H14.5267C14.4512 54.4006 14.3663 54.1407 14.3218 53.8647C13.5239 50.0358 12.3998 43.7418 12.3998 38.6664C12.3998 33.2763 15.3691 29.4714 16.4433 28.0009H16.446H7.00854ZM56.8781 28.0036H30.6777L34.6417 23.5707C34.6754 23.5321 38.0085 19.5925 38.0085 12.0134C38.0085 11.9574 37.9358 6.37131 34.7549 3.22633L34.5972 3.08635C33.6901 2.52241 32.442 2.66773 32.442 2.66773C31.7236 2.66773 31.4042 3.58229 31.2694 4.24755V11.5054L18.6281 29.5607L18.4812 29.7634C17.3814 31.2579 15.0955 34.3669 15.0955 38.6664C15.0955 43.6178 16.2641 49.9771 16.9798 53.4287C17.341 55.5765 19.201 57.2056 21.4074 57.3003L52.8346 57.3336C54.3213 57.3336 55.5303 56.1378 55.5303 54.6673C55.5303 53.8887 55.1718 53.3087 54.8739 52.9595L52.8131 50.5584L55.5465 48.9439C56.3808 48.452 56.8781 47.6014 56.8781 46.6695C56.8781 45.8909 56.5196 45.3083 56.2204 44.959L54.1609 42.5553L56.897 40.9435C57.7286 40.4542 58.2259 39.6036 58.2259 38.6704C58.2259 37.8918 57.8674 37.3119 57.5695 36.9626L55.5087 34.5615L58.2421 32.947C59.0764 32.4551 59.5738 31.6045 59.5738 30.6713C59.5738 29.1994 58.3648 28.0036 56.8781 28.0036ZM9.03028 51.9982C7.91428 51.9982 7.00854 51.1023 7.00854 49.9985C7.00854 48.8946 7.91428 47.9987 9.03028 47.9987C10.1463 47.9987 11.052 48.8946 11.052 49.9985C11.052 51.1023 10.1463 51.9982 9.03028 51.9982Z" fill="white"/>
</svg>
