<svg width="53" height="52" viewBox="0 0 53 52" fill="none" xmlns="http://www.w3.org/2000/svg">
<path d="M0.269409 0V52H52.2694V0H0.269409ZM49.6657 49.4H2.87309V2.6H49.6657V49.4ZM21.3823 29.343H24.8537C28.6833 29.343 31.6521 28.5211 33.7596 26.8771C35.8675 25.2332 36.921 22.8705 36.921 19.7888C36.921 13.8736 33.1397 10.9159 25.5769 10.9159H17.5802V41.0841H21.3823V29.343ZM21.3823 14.1555H25.2257C27.8842 14.1555 29.8405 14.6371 31.0941 15.5998C32.3476 16.5629 32.9744 18.0143 32.9744 19.9539C32.9744 22.0998 32.2992 23.6578 30.9494 24.6276C29.5994 25.5977 27.4227 26.0823 24.4197 26.0823H21.3821V14.1555H21.3823Z" fill="white"/>
</svg>
