<svg width="65" height="53" viewBox="0 0 65 53" fill="none" xmlns="http://www.w3.org/2000/svg">
<path fill-rule="evenodd" clip-rule="evenodd" d="M57.3129 53H7.22593C3.38315 53 0.269409 49.8786 0.269409 46.0263V13.9474C0.269409 13.1775 0.891322 12.5526 1.66071 12.5526H5.83463V5.57895C5.83463 2.49797 8.32645 0 11.3998 0H25.3129C28.3863 0 30.8781 2.49797 30.8781 5.57895V6.97368H62.8781C63.6475 6.97368 64.2694 7.59853 64.2694 8.36842V46.0263C64.2694 49.8786 61.1557 53 57.3129 53ZM3.05202 15.3421V46.0263C3.05202 48.3374 4.92193 50.2105 7.22593 50.2105H51.7783C50.899 49.0417 50.3564 47.6038 50.3564 46.0263V15.3421H3.05202ZM61.4868 9.76316H28.0955V5.57895C28.0955 4.03916 26.8489 2.78947 25.3129 2.78947H11.3998C9.86384 2.78947 8.61724 4.03916 8.61724 5.57895V12.5526H51.7477C52.1345 12.5526 52.4837 12.7116 52.7355 12.9683C52.9845 13.2207 53.139 13.5652 53.139 13.9474V46.0263C53.139 48.3374 55.0075 50.2105 57.3129 50.2105C59.6183 50.2105 61.4868 48.3374 61.4868 46.0263V9.76316Z" fill="white"/>
</svg>
